<svg version="1.1" id="Logo" xmlns="http://www.w3.org/2000/svg" x="0" y="0" viewBox="0 0 137 28" xml:space="preserve"><style>.st0{enable-background:new}.st1{fill:#fefefe}.st2{fill:#65e496}</style><g class="st0"><path class="st1" d="M41.5 23v-1.7l2.2-.4V5.2l-2.2-.4V3.1H50.1c2.1 0 3.7.4 4.9 1.3 1.2.9 1.8 2.2 1.8 4 0 .9-.3 1.7-.8 2.4s-1.3 1.2-2.2 1.6c.8.2 1.5.5 2.1 1s1 1.1 1.3 1.8.5 1.4.5 2.3c0 1.8-.6 3.2-1.8 4.2-1.3.8-2.9 1.3-4.9 1.3h-9.5zm5-11.4h4.4c1 0 1.7-.3 2.3-.8.6-.6.9-1.3.9-2.3 0-1.1-.3-1.9-1-2.4s-1.6-.8-2.9-.8h-3.7v6.3zm0 9.3H51c1.2 0 2.2-.3 2.9-.9.7-.6 1-1.5 1-2.6 0-.8-.1-1.5-.4-2-.3-.6-.6-1-1.1-1.3-.5-.3-1.2-.5-1.9-.5h-4.9v7.3zM68.8 23.3c-1.4 0-2.6-.3-3.7-.8s-1.9-1.3-2.5-2.3c-.6-1-.9-2.2-.9-3.6V5.2l-2.2-.4V3.1h7.2v1.7l-2.2.4v11.4c0 1 .2 1.8.6 2.5.4.7.9 1.2 1.6 1.5.7.3 1.5.5 2.3.5.9 0 1.7-.2 2.4-.5s1.2-.8 1.6-1.5c.4-.7.6-1.5.6-2.5V5.2l-2.2-.4V3.1h7.2v1.7l-2.2.4v11.4c0 1.4-.3 2.7-.9 3.7-.6 1-1.5 1.8-2.5 2.3s-2.7.7-4.2.7zM80.4 23v-1.7l2.2-.4V5.2l-2.2-.4V3.1h7.2v1.7l-2.2.4v15.7l2.2.4V23h-7.2zm4.8-5.8l-1.4-1.7L93.2 5l-1.5-.2V3.1h6.4v1.7l-1.9.3-11 12.1zm7 5.8v-1.7l1.6-.2-5.5-7.6 1.5-2.1L97 21l1.8.3V23h-6.6z"/></g><g class="st0"><path class="st2" d="M101 23v-1.7l2.2-.4V5.2l-2.2-.4V3.1h14.7v4.8h-2.2l-.3-2.7h-7.4v6.5h7.3v2.1h-7.3V21h7.8l.3-2.7h2.1V23h-15zM118.8 23v-1.7l2.2-.4V5.2l-2.2-.4V3.1h14.7v4.8h-2.2l-.3-2.7h-7.4v6.5h7.3v2.1h-7.3V21h7.8l.3-2.7h2.1V23h-15z"/></g><g id="logo_icon"><path id="Rectangle_10_copy_3" class="st2" d="M28 28L0 0h28v28z"/><path d="M28 0L0 28V0h28z" fill="#80809b"/></g></svg>